<?xml version="1.0" encoding="UTF-8" standalone="no"?>
<svg width="32" height="32" viewBox="0 0 32 32" fill="none" xmlns="http://www.w3.org/2000/svg">
  <!-- Background circle with gradient -->
  <circle cx="16" cy="16" r="16" fill="url(#paint0_linear)" />
  
  <!-- Blueberry shape -->
  <path d="M16 7C12.134 7 9 10.134 9 14C9 17.866 12.134 21 16 21C19.866 21 23 17.866 23 14C23 10.134 19.866 7 16 7Z" fill="url(#paint1_radial)" />
  
  <!-- Blueberry highlights -->
  <circle cx="14" cy="12" r="1.5" fill="#FFFFFF" fill-opacity="0.7" />
  <circle cx="17" cy="15" r="1" fill="#FFFFFF" fill-opacity="0.5" />
  
  <!-- Leaf -->
  <path d="M16 7C16 7 18 3 21 4C24 5 20 7 20 7" fill="#4ADE80" />
  
  <!-- Pink splash watercolor effect -->
  <circle cx="19" cy="16" r="8" fill="url(#paint2_radial)" fill-opacity="0.4" />
  
  <!-- Gradients definitions -->
  <defs>
    <linearGradient id="paint0_linear" x1="0" y1="0" x2="32" y2="32" gradientUnits="userSpaceOnUse">
      <stop stop-color="#111827" />
      <stop offset="1" stop-color="#1F2937" />
    </linearGradient>
    
    <radialGradient id="paint1_radial" cx="0" cy="0" r="1" gradientUnits="userSpaceOnUse" gradientTransform="translate(16 14) rotate(90) scale(7)">
      <stop offset="0" stop-color="#3B82F6" />
      <stop offset="1" stop-color="#1E40AF" />
    </radialGradient>
    
    <radialGradient id="paint2_radial" cx="0" cy="0" r="1" gradientUnits="userSpaceOnUse" gradientTransform="translate(19 16) rotate(90) scale(8)">
      <stop offset="0" stop-color="#EC4899" />
      <stop offset="1" stop-color="#EC4899" stop-opacity="0" />
    </radialGradient>
  </defs>
</svg>