<svg xmlns="http://www.w3.org/2000/svg" viewBox="0 0 64 64" width="64" height="64">
  <!-- Watercolor Blueberry -->
  <g>
    <!-- Pink Side -->
    <path d="M14,32 C14,20 24,14 32,14 C32,14 32,14 32,14 C40,14 50,20 50,32 C50,44 40,50 32,50 C24,50 14,44 14,32 Z" fill="#f8bbd9" opacity="0.8"/>
    
    <!-- Blue Side (overlapping) -->
    <path d="M18,32 C18,22 24,18 32,18 C32,18 32,18 32,18 C40,18 46,22 46,32 C46,42 40,46 32,46 C24,46 18,42 18,32 Z" fill="#3b82f6" opacity="0.8"/>
    
    <!-- Deeper Blue Center -->
    <path d="M22,32 C22,26 26,22 32,22 C32,22 32,22 32,22 C38,22 42,26 42,32 C42,38 38,42 32,42 C26,42 22,38 22,32 Z" fill="#1e40af" opacity="0.7"/>
    
    <!-- Blueberry Top Indentation -->
    <path d="M28,22 C28,22 32,24 36,22 C36,22 34,18 32,18 C30,18 28,22 28,22 Z" fill="#0f172a" opacity="0.6"/>
  </g>
  
  <!-- Gold Circle Outline -->
  <circle cx="32" cy="32" r="25" fill="none" stroke="#f59e0b" stroke-width="1.5" opacity="0.7"/>
  
  <!-- Gold Splatter Elements -->
  <g fill="#f59e0b" opacity="0.8">
    <circle cx="20" cy="17" r="1"/>
    <circle cx="44" cy="17" r="1"/>
    <circle cx="15" cy="32" r="1"/>
    <circle cx="49" cy="32" r="1"/>
    <circle cx="20" cy="47" r="1"/>
    <circle cx="44" cy="47" r="1"/>
  </g>
</svg>